# xmcd CD database file
#
# Track frame offsets:
#	150
#	15599
#	28509
#	41454
#	51815
#	64043
#	83780
#	95181
#	108988
#	121386
#	132260
#	146288
#	157940
#	168042
#	178967
#	190192
#
# Disc length: 2653 seconds
#
# Revision: 0
# Processed by: cddbd v1.5.2PL0 Copyright (c) Steve Scherf et al.
# Submitted via: CDex 1.76
#
DISCID=cc0a5b10
DTITLE=Various Artist - Cowboy's dream
DYEAR=2011
DGENRE=Country
TTITLE0=Johnny Cash - Darlin' companion
TTITLE1=Willie Nelson - Any old arms won't do
TTITLE2=Johnny Cash - Folsom prison blues
TTITLE3=Willie Nelson - I feel sorry for him
TTITLE4=Johnny Cash&The Tennessee Two - Home of the blues
TTITLE5=Kenny Rogers - Lay it down
TTITLE6=Johnny Cash - Don't make me go
TTITLE7=Kenny Rogers - I'm gonna sing you a sad song, Suzie
TTITLE8=Willie Nelson - I can't find the time
TTITLE9=Johnny Cash&The Tennessee Two - I heard that lonesome whistle
TTITLE10=Tom T Hall - Week in a country jail
TTITLE11=Johnny Cash&The Tennessee Two - Doin' my time
TTITLE12=Willie Nelson - Healing hands of time
TTITLE13=Kenny Rogers - We all got to help each other
TTITLE14=Dolly Parton - It wasn't God who made honky tonk angels
TTITLE15=Johnny Cash&The Tennessee Two - Remember me
EXTD=YEAR: 2011
EXTT0=
EXTT1=
EXTT2=
EXTT3=
EXTT4=
EXTT5=
EXTT6=
EXTT7=
EXTT8=
EXTT9=
EXTT10=
EXTT11=
EXTT12=
EXTT13=
EXTT14=
EXTT15=
PLAYORDER=
